<svg xmlns="http://www.w3.org/2000/svg" xmlns:xlink="http://www.w3.org/1999/xlink" version="1.1" width="256" height="256" viewBox="0 0 256 256" xml:space="preserve">

<defs>
</defs>
<g style="stroke: none; stroke-width: 0; stroke-dasharray: none; stroke-linecap: butt; stroke-linejoin: miter; stroke-miterlimit: 10; fill: none; fill-rule: nonzero; opacity: 1;" transform="translate(1.4065934065934016 1.4065934065934016) scale(2.81 2.81)" >
	<path d="M 44.913 26.682 H 15.231 c -8.28 0 -15.002 -3.611 -15.211 -11.841 C 0.016 14.972 0 15.099 0 15.231 v 31.303 c 8.265 10.233 20.908 16.784 35.087 16.784 h 0.682 c 8.28 0 12.002 3.611 12.211 11.841 c 0.003 -0.131 0.02 -0.258 0.02 -0.39 C 48 83.181 44.181 90 35.769 90 h 39 C 83.181 90 90 83.181 90 74.769 C 90 42.732 69.814 26.682 44.913 26.682 z" style="stroke: none; stroke-width: 1; stroke-dasharray: none; stroke-linecap: butt; stroke-linejoin: miter; stroke-miterlimit: 10; fill: rgb(38,165,58); fill-rule: nonzero; opacity: 1;" transform=" matrix(1 0 0 1 0 0) " stroke-linecap="round" />
	<path d="M 90 74.769 L 90 74.769 c 0 -24.901 -20.186 -45.087 -45.087 -45.087 H 15.231 c -8.28 0 -15.002 -6.611 -15.211 -14.841 C 0.016 14.972 0 15.099 0 15.231 C 0 6.819 6.819 0 15.231 0 h 59.538 C 83.181 0 90 6.819 90 15.231 V 74.769" style="stroke: none; stroke-width: 1; stroke-dasharray: none; stroke-linecap: butt; stroke-linejoin: miter; stroke-miterlimit: 10; fill: rgb(42,181,64); fill-rule: nonzero; opacity: 1;" transform=" matrix(1 0 0 1 0 0) " stroke-linecap="round" />
	<path d="M 0 74.769 V 43.534 c 8.265 10.233 20.908 16.784 35.087 16.784 h 0.682 c 8.28 0 15.002 6.611 15.211 14.841 c 0.003 -0.131 0.02 -0.258 0.02 -0.39 C 51 83.181 44.181 90 35.769 90 H 15.231 C 6.819 90 0 83.181 0 74.769 z" style="stroke: none; stroke-width: 1; stroke-dasharray: none; stroke-linecap: butt; stroke-linejoin: miter; stroke-miterlimit: 10; fill: rgb(36,152,54); fill-rule: nonzero; opacity: 1;" transform=" matrix(1 0 0 1 0 0) " stroke-linecap="round" />
	<path d="M 62.631 27.266 C 57.953 22.583 51.732 20.003 45.104 20 c -13.657 0 -24.771 11.114 -24.777 24.774 c -0.002 4.367 1.139 8.629 3.307 12.387 L 20.12 70 l 13.134 -3.446 c 3.619 1.974 7.693 3.014 11.84 3.016 h 0.01 c 13.655 0 24.771 -11.115 24.776 -24.776 C 69.883 38.174 67.309 31.949 62.631 27.266 z M 58.168 53.966 c -0.698 1.952 -3.651 3.399 -4.974 3.597 c -0.452 0.067 -1.013 0.132 -1.652 0.132 c -0.794 0 -1.711 -0.099 -2.698 -0.413 c -1.023 -0.325 -2.171 -0.712 -3.623 -1.34 c -5.274 -2.277 -9.086 -6.953 -10.889 -9.538 l -0.096 -0.136 c -0.818 -1.093 -2.721 -3.962 -2.721 -6.995 c 0 -3.248 1.623 -4.979 2.316 -5.718 l 0.113 -0.122 c 0.908 -0.992 1.973 -1.099 2.389 -1.099 c 0.43 0 0.86 0.004 1.235 0.022 c 0.766 -0.04 1.646 0.184 2.268 1.678 l 0.7 1.698 c 0.457 1.113 1.083 2.638 1.181 2.837 c 0.345 0.687 0.362 1.353 0.052 1.976 l -0.083 0.168 c -0.167 0.342 -0.326 0.665 -0.672 1.069 l -0.3 0.361 c -0.237 0.289 -0.476 0.577 -0.683 0.782 c -0.021 0.022 -0.055 0.055 -0.086 0.087 c 0.484 0.828 1.613 2.578 3.219 4.01 c 1.858 1.658 3.448 2.347 4.302 2.717 c 0.19 0.083 0.345 0.15 0.458 0.207 c 0.063 0.031 0.111 0.053 0.148 0.067 c 0.515 -0.588 1.532 -1.797 1.874 -2.31 c 0.87 -1.311 2.057 -0.881 2.566 -0.694 c 0.714 0.259 4.3 2.041 4.336 2.059 l 0.322 0.158 c 0.535 0.258 0.997 0.481 1.275 0.948 C 58.887 50.909 58.641 52.639 58.168 53.966 z" style="stroke: none; stroke-width: 1; stroke-dasharray: none; stroke-linecap: butt; stroke-linejoin: miter; stroke-miterlimit: 10; fill: rgb(255,255,255); fill-rule: nonzero; opacity: 1;" transform=" matrix(1 0 0 1 0 0) " stroke-linecap="round" />
</g>
</svg>